<svg xmlns="http://www.w3.org/2000/svg" viewBox="0 0 64 64">
  <defs>
    <linearGradient id="green" x1="8" y1="8" x2="56" y2="56" gradientUnits="userSpaceOnUse">
      <stop stop-color="#82ffba" />
      <stop offset="1" stop-color="#43f59a" />
    </linearGradient>
  </defs>
  <rect x="3" y="3" width="58" height="58" rx="16" fill="url(#green)" />
  <g
    transform="translate(8 8) scale(2)"
    fill="none"
    stroke="#03110b"
    stroke-width="2"
    stroke-linecap="round"
    stroke-linejoin="round"
  >
    <path d="M12 15v5s3.03-.55 4-2c1.08-1.62 0-5 0-5" />
    <path d="M4.5 16.5c-1.5 1.26-2 5-2 5s3.74-.5 5-2c.71-.84.7-2.13-.09-2.91a2.18 2.18 0 0 0-2.91-.09" />
    <path d="M9 12a22 22 0 0 1 2-3.95A12.88 12.88 0 0 1 22 2c0 2.72-.78 7.5-6 11a22.4 22.4 0 0 1-4 2z" />
    <path d="M9 12H4s.55-3.03 2-4c1.62-1.08 5 .05 5 .05" />
  </g>
</svg>
