<svg xmlns="http://www.w3.org/2000/svg" viewBox="0 0 32 32" width="32" height="32">
  <defs>
    <linearGradient id="rocketGradient" x1="0%" y1="0%" x2="100%" y2="100%">
      <stop offset="0%" style="stop-color:#4F46E5;stop-opacity:1" />
      <stop offset="100%" style="stop-color:#7C3AED;stop-opacity:1" />
    </linearGradient>
    <linearGradient id="flameGradient" x1="0%" y1="0%" x2="100%" y2="100%">
      <stop offset="0%" style="stop-color:#F59E0B;stop-opacity:1" />
      <stop offset="50%" style="stop-color:#EF4444;stop-opacity:1" />
      <stop offset="100%" style="stop-color:#DC2626;stop-opacity:1" />
    </linearGradient>
  </defs>
  
  <!-- Rocket body -->
  <path d="M16 4 L20 8 L20 24 L12 24 L12 8 Z" fill="url(#rocketGradient)" stroke="#1F2937" stroke-width="0.5"/>
  
  <!-- Rocket nose -->
  <path d="M16 4 L20 8 L12 8 Z" fill="#E5E7EB" stroke="#1F2937" stroke-width="0.5"/>
  
  <!-- Rocket fins -->
  <path d="M12 20 L8 24 L12 24 Z" fill="#6B7280" stroke="#1F2937" stroke-width="0.5"/>
  <path d="M20 20 L24 24 L20 24 Z" fill="#6B7280" stroke="#1F2937" stroke-width="0.5"/>
  
  <!-- Rocket window -->
  <circle cx="16" cy="12" r="2" fill="#3B82F6" stroke="#1F2937" stroke-width="0.5"/>
  
  <!-- Rocket flames -->
  <path d="M14 24 L16 28 L18 24 Z" fill="url(#flameGradient)"/>
  <path d="M15 24 L16 26 L17 24 Z" fill="#FCD34D"/>
  
  <!-- Stars -->
  <circle cx="6" cy="6" r="0.5" fill="#FCD34D"/>
  <circle cx="26" cy="8" r="0.5" fill="#FCD34D"/>
  <circle cx="8" cy="18" r="0.5" fill="#FCD34D"/>
  <circle cx="24" cy="16" r="0.5" fill="#FCD34D"/>
</svg> 